<?xml version="1.0" encoding="UTF-8"?>
<svg id="Calque_1" xmlns="http://www.w3.org/2000/svg" version="1.1" viewBox="0 0 1000 381.7">
  <!-- Generator: Adobe Illustrator 29.5.0, SVG Export Plug-In . SVG Version: 2.1.0 Build 137)  -->
  <defs>
    <style>
      .st0 {
        fill: #006dff;
      }

      .st1 {
        fill: #021757;
      }
    </style>
  </defs>
  <path class="st1" d="M363.2,249.1c-1.3,1.3-2.9,1.9-4.7,1.9s-3.5-.6-4.7-1.9c-1.2-1.3-1.8-2.8-1.8-4.7v-81.2c0-1.8.6-3.3,1.9-4.6,1.2-1.3,2.8-1.9,4.8-1.9s3.3.6,4.6,1.9c1.3,1.3,1.9,2.8,1.9,4.6v81.2c0,1.9-.7,3.5-2,4.7Z"/>
  <path class="st1" d="M459.5,240.4c1.2,1.1,1.8,2.6,1.8,4.4s-.6,3.3-1.9,4.4c-1.2,1.2-2.8,1.8-4.5,1.8h-60.9c-1.9,0-3.5-.6-4.7-2-1.3-1.3-1.9-2.8-1.9-4.4s.5-2.8,1.5-4l54.5-71.6h-44.7c-1.9,0-3.4-.6-4.6-1.8-1.2-1.2-1.8-2.6-1.8-4.4s.6-3.3,1.8-4.4c1.2-1.1,2.7-1.7,4.6-1.7h57.1c1.8,0,3.4.6,4.8,1.8,1.4,1.2,2.1,2.7,2.1,4.5s-.5,2.6-1.5,4l-54.5,71.6h48.2c1.9,0,3.4.6,4.6,1.7Z"/>
  <path class="st1" d="M549.9,208c-3.2-3.9-7.2-6.7-12.1-8.4,3.9-1.8,6.9-4.4,8.9-7.8,1.5-2.4,2.4-5.1,2.8-8-4.6,1.7-9.3,2.7-14.1,3-.6,2.1-1.6,3.9-3.1,5.3-2.4,2.3-5.4,3.5-9.1,3.6h-25.5v-16.7c-4.6-2-9.2-4.2-13.6-6.6v72.2c0,1.8.6,3.3,1.9,4.6,1.2,1.2,2.8,1.9,4.5,1.9h34.3c8.3,0,15.3-2.1,21-6.4,5.7-4.3,8.6-11.4,8.6-21.4s-1.6-11.4-4.7-15.3ZM536.6,234.8c-2.9,2.5-6.9,3.8-11.7,3.8h-27v-30.3h26.3c11.2,0,16.8,5,16.8,14.9s-1.5,9-4.4,11.5ZM523.1,169.4c4.1,0,7.3,1.1,9.5,3.3.9.9,1.6,1.9,2.1,3,4.8.5,9.7.4,14.7-.3-.7-5.3-2.7-9.5-6-12.6-4.2-4-10.4-6.1-18.5-6.1h-34.3c-.1,0-.3,0-.4,0,7.3,5,14.6,9.3,22,12.6h10.9Z"/>
  <path class="st1" d="M650.1,242.6c.5.9.8,1.9.8,2.9,0,1.9-.6,3.3-1.8,4.2-1.2.9-2.6,1.3-4.3,1.3s-3.1-.4-4.3-1.1c-2.7-1.5-4.9-4-6.5-7.4-1.7-3.4-2.5-8.4-2.5-15.1s-1.3-7.8-4-10-6.1-3.2-10.4-3.2h-27v30.3c0,1.9-.5,3.4-1.6,4.6-1.1,1.2-2.4,1.8-4.1,1.8s-3.8-.6-5.3-1.9c-1.5-1.3-2.2-2.8-2.2-4.6v-81.3c0-1.8.6-3.3,1.9-4.6,1.2-1.3,2.8-1.9,4.5-1.9h37.5c4.8,0,9.2,1.2,13.2,3.6,4,2.4,7.2,5.7,9.6,9.8,2.4,4.2,3.6,8.9,3.6,14.1s-1.3,9.7-4,14.1c-2.7,4.4-6.1,7.6-10.3,9.8,3.3,1.7,5.9,4.1,7.8,7.1,1.9,3.1,3,6.6,3.1,10.6.4,5.1.8,8.6,1.2,10.4.4,1.8,1.4,3.2,2.9,4,.9.6,1.6,1.4,2.1,2.4ZM626.8,200.4c2-1.6,3.6-3.8,4.9-6.5,1.2-2.7,1.9-5.8,1.9-9.2s-1.3-8-3.9-11c-2.6-3-5.8-4.5-9.5-4.5h-30v33.9h30.4c2.2-.2,4.3-1.1,6.3-2.7Z"/>
  <path class="st1" d="M684.1,249.1c-1.3,1.3-2.9,1.9-4.7,1.9s-3.5-.6-4.7-1.9c-1.2-1.3-1.8-2.8-1.8-4.7v-81.2c0-1.8.6-3.3,1.9-4.6,1.2-1.3,2.8-1.9,4.8-1.9s3.3.6,4.6,1.9c1.3,1.3,1.9,2.8,1.9,4.6v81.2c0,1.9-.7,3.5-2,4.7Z"/>
  <path class="st1" d="M780.4,240.4c1.2,1.1,1.8,2.6,1.8,4.4s-.6,3.3-1.9,4.4c-1.2,1.2-2.8,1.8-4.5,1.8h-60.9c-1.9,0-3.5-.6-4.7-2-1.3-1.3-1.9-2.8-1.9-4.4s.5-2.8,1.5-4l54.5-71.6h-44.7c-1.9,0-3.4-.6-4.6-1.8-1.2-1.2-1.8-2.6-1.8-4.4s.6-3.3,1.8-4.4c1.2-1.1,2.7-1.7,4.6-1.7h57.1c1.8,0,3.4.6,4.8,1.8,1.4,1.2,2.1,2.7,2.1,4.5s-.5,2.6-1.5,4l-54.5,71.6h48.2c1.9,0,3.4.6,4.6,1.7Z"/>
  <path class="st1" d="M536.1,182.3c0,1.6-.2,3.1-.6,4.5-12.3.8-25.2-2.5-37.6-7.8-4.6-2-9.2-4.2-13.6-6.6-11.1-6-21.5-13.1-30.4-19.5-20.4-14.5-67.9-47.3-91.6-41-16.7,4.5-25.5,31.4-31.9,48.3-5.9,15.5-14.6,64.3-21.1,77-7,13.6-18.3,20-28.2,6.3-10.1-14.1-19.1-86.5-22.4-106l-3.8-13.2c-14.2,1.6-41.3,45.1-46.5,61.3-3.2,10.2-1.1,9.1,5.7,10.3l-9.6,2.4c-12.3-10.1,13.1-56.3,19.1-65.4,8.9-13.7,29.7-39.9,44.4-21.4,5.9,7.3,9.7,29.9,12.2,40.4,2.2,9.1,7.5,49,12.5,63.2,4.4-13.3,8.9-49.3,12.3-60.2,12-38.2,30.5-78.4,69.9-71.2,34.9,6.4,82.8,50.6,115.5,72.9,0,0,0,0,0,0,7.3,5,14.6,9.3,22,12.6,7.4,3.3,14.8,5.5,22.5,6.3.8,1.8,1.3,4,1.3,6.6Z"/>
  <path class="st0" d="M565.9,171.8c-3.6,4.7-2.6,4.4-7.2,7.4-3,1.9-6,3.5-9.1,4.6.2-1.1.2-2.3.2-3.5,0-1.7-.1-3.4-.3-4.9,2.5-.4,5-.9,7.6-1.6,6.6-1.8,1.8-1.2,8.9-2.1Z"/>
  <path class="st1" d="M549.8,180.3c0,1.2,0,2.4-.2,3.5-4.6,1.7-9.3,2.7-14.1,3,.4-1.3.6-2.8.6-4.5,0-2.6-.4-4.8-1.3-6.6,4.8.5,9.7.4,14.7-.3.2,1.5.3,3.2.3,4.9Z"/>
</svg>