<?xml version="1.0" encoding="UTF-8"?>
<svg id="Calque_1" xmlns="http://www.w3.org/2000/svg" version="1.1" xmlns:xlink="http://www.w3.org/1999/xlink" viewBox="0 0 1000 381.7">
  <!-- Generator: Adobe Illustrator 29.5.0, SVG Export Plug-In . SVG Version: 2.1.0 Build 137)  -->
  <defs>
    <style>
      .st0 {
        fill: #fff;
      }

      .st1 {
        fill: url(#Dégradé_sans_nom_15);
      }
    </style>
    <linearGradient id="Dégradé_sans_nom_15" data-name="Dégradé sans nom 15" x1="1236.9" y1="-142.2" x2="1624.4" y2="-142.2" gradientTransform="translate(-1051.2 296.6)" gradientUnits="userSpaceOnUse">
      <stop offset=".6" stop-color="#006dff"/>
      <stop offset=".6" stop-color="#0d78fe"/>
      <stop offset=".7" stop-color="#3195fe"/>
      <stop offset=".9" stop-color="#6ac3fd"/>
      <stop offset="1" stop-color="#98e9fd"/>
    </linearGradient>
  </defs>
  <g>
    <path class="st0" d="M354.4,250.4c-1.5,1.4-3.2,2.1-5.1,2.1s-3.9-.7-5.2-2.1c-1.3-1.4-2-3.1-2-5.2v-88.8c0-2,.7-3.6,2-5,1.4-1.4,3.1-2.1,5.3-2.1s3.6.7,5,2.1c1.4,1.4,2.1,3,2.1,5v88.8c0,2.1-.7,3.8-2.2,5.2Z"/>
    <path class="st0" d="M459.8,240.9c1.3,1.2,2,2.8,2,4.8s-.7,3.6-2,4.9c-1.4,1.3-3,1.9-5,1.9h-66.6c-2,0-3.8-.7-5.2-2.1-1.4-1.4-2.1-3-2.1-4.8s.5-3,1.6-4.4l59.6-78.4h-48.9c-2,0-3.7-.6-5-1.9-1.3-1.3-2-2.9-2-4.9s.7-3.6,2-4.8c1.3-1.2,3-1.8,5-1.8h62.5c1.9,0,3.7.7,5.3,2,1.6,1.3,2.3,3,2.3,4.9s-.5,2.8-1.6,4.4l-59.6,78.4h52.7c2,0,3.7.6,5,1.8Z"/>
    <image width="112" height="117" transform="translate(486.6 149.5) scale(.2)" xlink:href="vizbrizz_logo color white long-1.png"/>
    <path class="st0" d="M558.6,205.4c-3.5-4.3-7.9-7.3-13.2-9.2,4.3-2,7.5-4.8,9.8-8.5,1.4-2.4,2.4-5,2.9-7.7.3-1.6.4-3.2.4-4.9s0-2.7-.2-4c-.6-6.4-2.9-11.5-6.7-15.1-4.6-4.4-11.4-6.6-20.2-6.6h-37.5c-.6,0-1.3,0-1.8.2.8.6,1.5,1.1,2.3,1.7,6.4,4.6,12.7,8.6,19,12h16.1c4.5,0,8,1.2,10.4,3.6,1.5,1.4,2.5,3.2,3.1,5.4.4,1.5.6,3.3.6,5.2,0,2.8-.5,5.2-1.4,7.2-.6,1.3-1.5,2.5-2.5,3.5-2.6,2.5-5.9,3.8-9.9,3.9h-27.9v-14.5c-5.1-2.1-10-4.5-14.9-7.1v75.1c0,2,.7,3.6,2,5,1.4,1.4,3,2.1,5,2.1h37.5c9.1,0,16.7-2.3,23-7,6.3-4.7,9.4-12.5,9.4-23.3s-1.7-12.4-5.2-16.7ZM544.1,234.7c-3.2,2.8-7.5,4.2-12.8,4.2h-29.5v-33.1h28.8c12.3,0,18.4,5.4,18.4,16.3s-1.6,9.8-4.8,12.6Z"/>
    <path class="st0" d="M668.2,243.3c.6,1,.9,2.1.9,3.2,0,2.1-.7,3.6-2,4.6-1.3,1-2.9,1.5-4.7,1.5s-3.4-.4-4.7-1.2c-2.9-1.7-5.3-4.4-7.2-8.1-1.9-3.7-2.8-9.2-2.8-16.5s-1.5-8.5-4.4-10.9c-2.9-2.4-6.7-3.5-11.4-3.5h-29.5v33.1c0,2.1-.6,3.8-1.8,5.1-1.2,1.3-2.7,2-4.5,2s-4.2-.7-5.8-2.1c-1.6-1.4-2.4-3-2.4-5v-89c0-2,.7-3.6,2-5,1.4-1.4,3-2.1,5-2.1h41c5.3,0,10.1,1.3,14.5,3.9,4.4,2.6,7.9,6.2,10.5,10.8,2.6,4.6,3.9,9.7,3.9,15.4s-1.5,10.6-4.4,15.4c-2.9,4.8-6.7,8.3-11.2,10.7,3.6,1.9,6.4,4.5,8.5,7.8,2.1,3.3,3.2,7.2,3.4,11.6.4,5.6.8,9.4,1.3,11.4.5,2,1.6,3.5,3.2,4.3,1,.7,1.8,1.5,2.3,2.6ZM642.8,197.1c2.2-1.8,4-4.1,5.3-7.1,1.4-3,2-6.4,2-10.1s-1.4-8.7-4.3-12c-2.9-3.3-6.4-4.9-10.4-4.9h-32.9v37.1h33.3c2.4-.2,4.7-1.2,6.9-2.9Z"/>
    <path class="st0" d="M705.5,250.4c-1.5,1.4-3.2,2.1-5.1,2.1s-3.9-.7-5.2-2.1c-1.3-1.4-2-3.1-2-5.2v-88.8c0-2,.7-3.6,2-5,1.4-1.4,3.1-2.1,5.3-2.1s3.6.7,5,2.1c1.4,1.4,2.1,3,2.1,5v88.8c0,2.1-.7,3.8-2.2,5.2Z"/>
    <path class="st0" d="M810.8,240.9c1.3,1.2,2,2.8,2,4.8s-.7,3.6-2,4.9c-1.4,1.3-3,1.9-5,1.9h-66.6c-2,0-3.8-.7-5.2-2.1-1.4-1.4-2.1-3-2.1-4.8s.5-3,1.6-4.4l59.6-78.4h-48.9c-2,0-3.7-.6-5-1.9-1.3-1.3-2-2.9-2-4.9s.7-3.6,2-4.8c1.3-1.2,3-1.8,5-1.8h62.5c1.9,0,3.7.7,5.3,2,1.6,1.3,2.3,3,2.3,4.9s-.5,2.8-1.6,4.4l-59.6,78.4h52.7c2,0,3.7.6,5,1.8Z"/>
  </g>
  <path class="st1" d="M513.3,163.2c-6.3-3.3-12.6-7.4-19-12-.8-.5-1.5-1.1-2.3-1.7-34.6-25.6-86.5-80.7-122.6-87.6-41.7-8-61.2,36.6-73.9,79.1-3.6,12-8.3,52-13,66.8-5.3-15.7-10.9-60-13.2-70.1-2.7-11.7-6.8-36.8-12.9-44.9-15.5-20.5-37.5,8.5-46.9,23.8-6.3,10.1-33.2,61.5-20.2,72.6l10.2-2.7c-7.1-1.3-9.4-.1-6-11.5,5.4-18,34.1-66.3,49.1-68.1l4,14.6c3.5,21.6,13,102.1,23.7,117.7,10.5,15.2,22.4,8.1,29.8-7,6.9-14.1,16.2-68.2,22.4-85.5,6.8-18.8,16.1-48.7,33.8-53.6,24.9-7,76.9,39.8,98.7,56.2.1.1.3.2.4.3,2.5,1.9,5.1,3.8,7.8,5.7,7.3,5.2,15.3,10.4,23.7,14.9,4.9,2.6,9.8,5.1,14.9,7.1,13.3,5.5,27.2,8.6,40.3,7.1.9-2,1.4-4.4,1.4-7.2s-.2-3.6-.6-5.2c-10.3-.6-20-3.9-29.6-9ZM563.8,169.8c-1.8.5-3.7,1-5.4,1.3.1,1.3.2,2.6.2,4s-.1,3.3-.4,4.9c2.5-1.2,5-2.6,7.4-4.3,4.8-3.3,3.8-3,7.6-8.2-7.4,1-2.4.3-9.4,2.3Z"/>
</svg>