<?xml version="1.0" encoding="UTF-8"?>
<svg id="Calque_1" xmlns="http://www.w3.org/2000/svg" version="1.1" xmlns:xlink="http://www.w3.org/1999/xlink" viewBox="0 0 1000 1000">
  <!-- Generator: Adobe Illustrator 29.5.0, SVG Export Plug-In . SVG Version: 2.1.0 Build 137)  -->
  <defs>
    <style>
      .st0 {
        fill: #021757;
      }

      .st1 {
        fill: url(#Dégradé_sans_nom_15);
      }
    </style>
    <linearGradient id="Dégradé_sans_nom_15" data-name="Dégradé sans nom 15" x1="212.9" y1="379.8" x2="787.1" y2="379.8" gradientUnits="userSpaceOnUse">
      <stop offset=".6" stop-color="#006dff"/>
      <stop offset=".6" stop-color="#0d78fe"/>
      <stop offset=".7" stop-color="#3195fe"/>
      <stop offset=".9" stop-color="#6ac3fd"/>
      <stop offset="1" stop-color="#98e9fd"/>
    </linearGradient>
  </defs>
  <path class="st1" d="M233.2,425.2l-15.1,3.8c-19.3-15.8,20.6-88.3,29.9-102.6,14-21.5,46.5-62.5,69.5-33.5,9.2,11.5,15.2,46.8,19.2,63.4,3.5,14.2,11.8,76.8,19.6,99,6.9-20.9,13.9-77.4,19.3-94.3,18.8-60,47.7-122.9,109.5-111.6,54.7,10,133.8,63.5,185.1,98.6,33.3,22.7,64.8,36.6,103,26.2,10.3-2.8,2.9-1.8,13.9-3.2-5.6,7.4-4.1,6.9-11.3,11.6-51.3,33.5-118.9-4.9-163.4-36.8-31.9-22.7-109.7-62.2-146.9-52.3-26.2,7-40,49.3-50.1,75.7-9.2,24.3-22.9,100.8-33.1,120.7-11,21.3-28.6,31.3-44.1,9.9-15.8-22.1-29.9-135.7-35.1-166.2l-5.9-20.6c-22.2,2.5-64.8,70.7-72.8,96.1-5.1,16-1.6,14.3,8.9,16.2h0Z"/>
  <g>
    <path class="st0" d="M305.7,608.2c1.4,1.3,2.1,2.9,2.1,4.8s-.2,2.1-.7,3.3l-37.8,90.1c-.7,1.5-1.7,2.6-3,3.4-1.3.8-2.6,1.2-4,1.2-1.3,0-2.5-.5-3.6-1.3-1.1-.7-2.1-1.8-2.7-3.2l-37.8-90.3c-.4-.8-.6-1.8-.6-3.1,0-2.1.7-3.8,2.2-5.1,1.5-1.3,3.1-1.9,4.9-1.9,3,0,5.1,1.6,6.5,4.8l32.3,77,30.5-77.1c.7-1.4,1.6-2.5,2.7-3.3,1.1-.8,2.4-1.2,3.8-1.2,2,0,3.7.6,5.1,1.9Z"/>
    <path class="st0" d="M343.2,708.9c-1.5,1.4-3.2,2.1-5.2,2.1s-3.9-.7-5.3-2.1c-1.3-1.4-2-3.1-2-5.2v-90.1c0-2,.7-3.7,2.1-5.1,1.4-1.4,3.2-2.1,5.3-2.1s3.7.7,5.1,2.1c1.4,1.4,2.1,3.1,2.1,5.1v90.1c0,2.1-.7,3.8-2.2,5.2Z"/>
    <path class="st0" d="M450.1,699.3c1.3,1.2,2,2.9,2,4.9s-.7,3.6-2.1,4.9c-1.4,1.3-3.1,1.9-5,1.9h-67.6c-2.1,0-3.8-.7-5.3-2.2-1.4-1.4-2.1-3.1-2.1-4.9s.5-3.1,1.6-4.5l60.5-79.5h-49.6c-2.1,0-3.8-.6-5.1-1.9-1.3-1.3-2-2.9-2-4.9s.7-3.6,2-4.9c1.3-1.2,3-1.9,5.1-1.9h63.4c2,0,3.8.7,5.3,2,1.6,1.3,2.4,3,2.4,5s-.5,2.9-1.6,4.5l-60.5,79.5h53.5c2.1,0,3.8.6,5.1,1.9Z"/>
    <path class="st0" d="M550.4,663.2c3.5,4.3,5.3,10,5.3,17,0,11.1-3.2,19-9.6,23.7-6.4,4.7-14.2,7.1-23.3,7.1h-38.1c-2,0-3.7-.7-5-2.1-1.4-1.4-2.1-3.1-2.1-5.1v-90.3c0-2,.7-3.7,2.1-5.1,1.4-1.4,3.1-2.1,5-2.1h38.1c9,0,15.8,2.2,20.5,6.7,4.7,4.5,7,11,7,19.4s-1.1,9-3.4,12.8c-2.3,3.7-5.6,6.6-9.9,8.6,5.4,1.9,9.9,5,13.4,9.3ZM531.3,624.1c-2.5-2.4-6.1-3.7-10.6-3.7h-28v29.1h28.3c4,0,7.4-1.4,10.1-4,2.7-2.5,4-6.2,4-10.8s-1.3-8.2-3.8-10.7ZM535.7,693c3.3-2.8,4.9-7.1,4.9-12.8,0-11.1-6.2-16.6-18.7-16.6h-29.2v33.6h29.9c5.4,0,9.8-1.4,13-4.3Z"/>
    <path class="st0" d="M661.6,701.7c.6,1,.9,2.1.9,3.2,0,2.1-.7,3.6-2,4.6-1.3,1-2.9,1.5-4.8,1.5s-3.5-.4-4.7-1.2c-3-1.7-5.4-4.4-7.3-8.2-1.9-3.8-2.8-9.4-2.8-16.7s-1.5-8.7-4.4-11.1-6.8-3.6-11.6-3.6h-29.9v33.6c0,2.1-.6,3.8-1.8,5.2-1.2,1.3-2.7,2-4.6,2s-4.2-.7-5.9-2.1c-1.6-1.4-2.4-3.1-2.4-5.1v-90.3c0-2,.7-3.7,2.1-5.1,1.4-1.4,3.1-2.1,5-2.1h41.6c5.3,0,10.2,1.3,14.7,4,4.4,2.6,8,6.3,10.7,10.9,2.7,4.6,4,9.8,4,15.6s-1.5,10.8-4.4,15.6c-3,4.8-6.8,8.4-11.4,10.8,3.7,1.9,6.5,4.5,8.7,7.9,2.1,3.4,3.3,7.3,3.5,11.8.4,5.7.8,9.5,1.3,11.6.5,2,1.6,3.5,3.3,4.4,1,.7,1.8,1.6,2.4,2.6ZM635.8,654.8c2.2-1.8,4-4.2,5.4-7.2,1.4-3,2.1-6.5,2.1-10.2s-1.5-8.8-4.4-12.2c-2.9-3.3-6.4-5-10.6-5h-33.3v37.7h33.8c2.5-.2,4.8-1.2,7-3Z"/>
    <path class="st0" d="M699.4,708.9c-1.5,1.4-3.2,2.1-5.2,2.1s-3.9-.7-5.3-2.1c-1.3-1.4-2-3.1-2-5.2v-90.1c0-2,.7-3.7,2.1-5.1,1.4-1.4,3.2-2.1,5.3-2.1s3.7.7,5.1,2.1c1.4,1.4,2.1,3.1,2.1,5.1v90.1c0,2.1-.7,3.8-2.2,5.2Z"/>
    <path class="st0" d="M806.3,699.3c1.3,1.2,2,2.9,2,4.9s-.7,3.6-2.1,4.9c-1.4,1.3-3.1,1.9-5,1.9h-67.6c-2.1,0-3.8-.7-5.3-2.2-1.4-1.4-2.1-3.1-2.1-4.9s.5-3.1,1.6-4.5l60.5-79.5h-49.6c-2.1,0-3.8-.6-5.1-1.9-1.3-1.3-2-2.9-2-4.9s.7-3.6,2-4.9c1.3-1.2,3-1.9,5.1-1.9h63.4c2,0,3.8.7,5.3,2,1.6,1.3,2.4,3,2.4,5s-.5,2.9-1.6,4.5l-60.5,79.5h53.5c2.1,0,3.8.6,5.1,1.9Z"/>
  </g>
</svg>